<svg xmlns="http://www.w3.org/2000/svg" width="104" height="41" viewBox="0 0 104 41" fill="none">
<path d="M27.3613 20.7929L27.2657 20.7962L27.2656 20.7953C27.298 20.7941 27.3299 20.793 27.3613 20.7919M27.3613 20.7929L27.3613 20.7919M27.3613 20.7929L27.3613 20.7919M27.3613 20.7929L29.3289 20.7242L29.3278 20.7223C29.1592 20.7287 28.6865 20.7456 27.3613 20.7919M25.3087 5.41278C28.9763 5.28482 32.3519 7.221 33.956 10.2389L33.8732 7.86831C33.8201 6.34749 35.0103 5.07401 36.5284 5.02098L47.2582 4.64629C47.8648 4.6251 48.4311 4.80465 48.8978 5.12158C49.337 4.78442 49.8806 4.57425 50.4757 4.55347L62.8324 4.12197C64.0327 4.08005 65.1291 4.82132 65.5282 5.96455L65.5273 5.96556L68.3984 14.1721L70.69 5.78234C71.0084 4.61539 72.0482 3.80145 73.2469 3.75828L73.2469 3.75731L85.6036 3.3258C86.1986 3.30507 86.7547 3.47686 87.2162 3.78249C87.6595 3.43418 88.2117 3.21623 88.8178 3.19499L98.2808 2.86454C99.978 2.80527 101.34 4.2437 101.196 5.9297L101.196 5.93165L99.7294 22.9405L99.7285 22.9444C99.676 23.5422 99.4374 24.0833 99.074 24.5151C100.259 25.7224 100.9 27.2381 100.96 28.9686C101.005 30.2571 100.714 31.4822 100.068 32.5927L100.067 32.5928C99.4386 33.6745 98.5619 34.5331 97.4718 35.1585C96.3564 35.7984 95.1125 36.1136 93.8033 36.1602L93.8034 36.1612L93.7965 36.1614L93.7965 36.1605C92.4732 36.2057 91.2061 35.9801 90.0475 35.4139C89.6017 35.196 89.189 34.9386 88.8099 34.6451C88.3262 35.2664 87.5822 35.6778 86.7344 35.7074L76.7952 36.0545C76.044 36.0807 75.3585 35.8008 74.8469 35.334C74.3605 35.852 73.6809 36.1759 72.9366 36.202L65.4051 36.465C64.6609 36.491 63.9593 36.216 63.4379 35.7334C62.9607 36.234 62.297 36.5608 61.5447 36.5871L51.6064 36.9341C51.0051 36.9551 50.4432 36.7789 49.9788 36.4672C49.5375 36.8099 48.9902 37.0245 48.3896 37.0455L37.6598 37.4202C36.1604 37.4725 34.8994 36.3154 34.8174 34.8215C33.0252 36.5667 30.5491 37.6684 27.8543 37.7626L6.64843 38.5031C5.13047 38.5561 3.85438 37.3696 3.80113 35.8489L2.86185 8.95125C2.80874 7.43042 3.99897 6.15694 5.51702 6.10392L25.3087 5.41278ZM34.223 17.8856C33.9395 18.5456 33.5719 19.1664 33.1129 19.7312C33.027 19.8369 32.9382 19.94 32.8472 20.0404C33.3761 20.3452 33.8734 20.6968 34.3348 21.0868L34.223 17.8856Z" fill="#0044FE" stroke="white" stroke-width="4.32"/>
</svg>