<svg width="172" height="135" viewBox="0 0 172 135" fill="none" xmlns="http://www.w3.org/2000/svg">
<g filter="url(#filter0_dd_26855_19324)">
<path d="M85.2016 58.8183C85.2016 58.8183 85.2016 58.8108 85.1941 58.807C84.7903 58.5693 84.9474 57.9129 85.4148 57.879C95.529 57.1433 101.403 49.7981 101.403 39.9177C101.399 29.4941 92.362 21.0058 81.2083 21.0058H25.3725C24.449 21.0058 23.7012 21.7603 23.7012 22.6921V99.3132C23.7012 100.245 24.449 101 25.3725 101H85.1979C97.6416 101 107.737 91.5417 107.737 79.9146C107.737 68.2875 97.6453 58.8372 85.2091 58.8296C85.2016 58.8296 85.1979 58.8259 85.1979 58.8183H85.2016Z" fill="#0044FE"/>
<path d="M120.74 73.5255C119.817 73.5255 119.069 72.771 119.069 71.8392V23.173C119.069 22.2411 119.817 21.4866 120.74 21.4866H147.437C148.567 21.4866 149.438 22.4826 149.303 23.6106L143.496 71.8581C143.381 72.8088 142.58 73.5255 141.631 73.5255H120.74Z" fill="#0044FE"/>
<path d="M131.543 103.475C131.54 103.475 131.537 103.475 131.533 103.475C128.636 103.474 126.096 102.882 123.896 101.698C121.694 100.514 119.97 98.8766 118.699 96.8205C117.428 94.7494 116.803 92.4368 116.803 89.8714C116.803 86.0422 118.187 82.8431 120.939 80.2551C123.691 77.6671 127.239 76.3845 131.547 76.3845C135.854 76.3845 139.365 77.6671 142.154 80.2551C144.944 82.8393 146.327 86.0385 146.327 89.8714C146.327 92.4368 145.68 94.7494 144.39 96.8205C143.1 98.8916 141.354 100.514 139.133 101.698C136.915 102.882 134.375 103.474 131.533 103.475C131.53 103.475 131.527 103.475 131.524 103.475H131.533H131.543Z" fill="#0044FE"/>
<path fill-rule="evenodd" clip-rule="evenodd" d="M28.4835 6.15479H84.2879H94.7012C96.2403 6.15479 106.201 6.15479 109.701 13.9995C112.201 6 119.095 6.00011 120.701 6L143.489 6.15479C153.215 6.15542 160.768 14.3954 160.146 23.9185L160.059 24.8443L160.055 24.8587L154.255 72.6529L154.251 72.6746C154.145 73.5399 153.966 74.3819 153.734 75.1988C156.009 79.2581 157.191 83.836 157.191 88.7096C157.191 93.911 155.825 98.9568 152.985 103.475C150.267 107.802 146.55 111.175 142.111 113.522C137.488 115.965 132.52 116.994 127.602 116.997L127.584 117.001C122.914 116.998 118.191 116.087 113.751 113.887C111.888 114.618 103.526 115.022 101.403 115.022H88.2768H28.4835C19.3797 115.022 12 107.643 12 98.5389V22.6383C12 13.5344 19.3796 6.15479 28.4835 6.15479ZM85.1941 58.807C85.2016 58.8108 85.2016 58.8183 85.2016 58.8183H85.1979C85.1979 58.8259 85.2016 58.8296 85.2091 58.8296C97.6453 58.8372 107.737 68.2875 107.737 79.9146C107.737 91.5417 97.6416 101 85.1979 101H25.3725C24.449 101 23.7012 100.245 23.7012 99.3132V22.6921C23.7012 21.7603 24.449 21.0058 25.3725 21.0058H81.2083C92.362 21.0058 101.399 29.4941 101.403 39.9177C101.403 49.7981 95.529 57.1433 85.4148 57.879C84.9474 57.9129 84.7903 58.5693 85.1941 58.807ZM119.069 71.8392C119.069 72.771 119.817 73.5255 120.74 73.5255H141.631C142.58 73.5255 143.381 72.8088 143.496 71.8581L149.303 23.6106C149.438 22.4826 148.567 21.4866 147.437 21.4866H120.74C119.817 21.4866 119.069 22.2411 119.069 23.173V71.8392ZM131.533 103.475C131.537 103.475 131.54 103.475 131.543 103.475H131.524C131.527 103.475 131.53 103.475 131.533 103.475C128.636 103.474 126.096 102.882 123.896 101.698C121.694 100.514 119.97 98.8766 118.699 96.8205C117.428 94.7494 116.803 92.4368 116.803 89.8714C116.803 86.0422 118.187 82.8431 120.939 80.2551C123.691 77.6671 127.239 76.3845 131.547 76.3845C135.854 76.3845 139.365 77.6671 142.154 80.2551C144.944 82.8393 146.327 86.0385 146.327 89.8714C146.327 92.4368 145.68 94.7494 144.39 96.8205C143.1 98.8916 141.354 100.514 139.133 101.698C136.915 102.882 134.375 103.474 131.533 103.475ZM131.543 103.475C131.54 103.475 131.537 103.475 131.533 103.475C131.53 103.475 131.527 103.475 131.524 103.475H131.543Z" fill="white"/>
</g>
<defs>
<filter id="filter0_dd_26855_19324" x="0.48" y="0.24" width="171.222" height="134.04" filterUnits="userSpaceOnUse" color-interpolation-filters="sRGB">
<feFlood flood-opacity="0" result="BackgroundImageFix"/>
<feColorMatrix in="SourceAlpha" type="matrix" values="0 0 0 0 0 0 0 0 0 0 0 0 0 0 0 0 0 0 127 0" result="hardAlpha"/>
<feOffset dy="5.76"/>
<feGaussianBlur stdDeviation="5.76"/>
<feComposite in2="hardAlpha" operator="out"/>
<feColorMatrix type="matrix" values="0 0 0 0 0 0 0 0 0 0 0 0 0 0 0 0 0 0 0.04 0"/>
<feBlend mode="normal" in2="BackgroundImageFix" result="effect1_dropShadow_26855_19324"/>
<feColorMatrix in="SourceAlpha" type="matrix" values="0 0 0 0 0 0 0 0 0 0 0 0 0 0 0 0 0 0 127 0" result="hardAlpha"/>
<feOffset dy="2.88"/>
<feGaussianBlur stdDeviation="2.88"/>
<feComposite in2="hardAlpha" operator="out"/>
<feColorMatrix type="matrix" values="0 0 0 0 0 0 0 0 0 0 0 0 0 0 0 0 0 0 0.08 0"/>
<feBlend mode="normal" in2="effect1_dropShadow_26855_19324" result="effect2_dropShadow_26855_19324"/>
<feBlend mode="normal" in="SourceGraphic" in2="effect2_dropShadow_26855_19324" result="shape"/>
</filter>
</defs>
</svg>
