<svg width="319" height="135" viewBox="0 0 319 135" fill="none" xmlns="http://www.w3.org/2000/svg">
<g filter="url(#filter0_dd_26855_19323)">
<path d="M84.2879 6H28.4835C19.3796 6 12 13.3796 12 22.4835V98.3842C12 107.488 19.3797 114.868 28.4835 114.868H88.2768C94.2495 114.868 100.054 113.461 105.241 110.929C108.119 113.383 111.849 114.867 115.928 114.868H146.186C147.757 114.867 149.275 114.642 150.714 114.231C152.156 114.644 153.678 114.871 155.252 114.871H183.279C185.176 114.871 186.99 114.545 188.678 113.96C190.407 114.57 192.253 114.907 194.161 114.907H215.4C217.307 114.907 219.152 114.569 220.879 113.96C222.569 114.546 224.385 114.871 226.282 114.871H254.305C256.428 114.871 258.456 114.463 260.319 113.732C264.759 115.932 269.482 116.844 274.152 116.846L274.17 116.842C279.088 116.84 284.056 115.811 288.679 113.367C293.118 111.02 296.834 107.647 299.553 103.321C302.392 98.802 303.759 93.7562 303.759 88.5548C303.759 83.6812 302.577 79.1033 300.302 75.044C300.533 74.2271 300.713 73.3851 300.819 72.5198L300.823 72.4981L306.623 24.7039L306.627 24.6895L306.714 23.7637C307.336 14.2406 299.782 6.00064 290.057 6H263.371C261.765 6.00011 260.214 6.23685 258.746 6.66541C257.333 6.27089 255.844 6.05063 254.305 6.05063L219.465 6.05425C213.213 6.05716 207.563 9.58657 204.782 15.059C201.999 9.58784 196.352 6.05463 190.1 6.05425H155.252C153.714 6.05439 152.227 6.27134 150.815 6.66541C149.346 6.23616 147.794 6.00017 146.186 6H115.928C111.004 6.00022 106.587 8.16132 103.567 11.5837C97.915 8.02026 91.2159 6 84.2879 6Z" fill="white"/>
<path d="M88.0732 58.3501C88.0732 58.3501 88.0732 58.3426 88.0657 58.3388C87.6619 58.1011 87.819 57.4447 88.2863 57.4108C98.4006 56.6751 104.275 49.3299 104.275 39.4495C104.271 29.0259 95.2336 20.5376 84.0799 20.5376H28.2441C27.3206 20.5376 26.5728 21.2921 26.5728 22.2239V98.845C26.5728 99.7768 27.3206 100.531 28.2441 100.531H88.0695C100.513 100.531 110.609 91.0735 110.609 79.4464C110.609 67.8193 100.517 58.369 88.0807 58.3614C88.0732 58.3614 88.0695 58.3577 88.0695 58.3501H88.0732Z" fill="#0044FE"/>
<path d="M115.735 100.532C114.812 100.532 114.064 99.7776 114.064 98.8458V22.2248C114.064 21.293 114.812 20.5384 115.735 20.5384H146.007C146.93 20.5384 147.678 21.293 147.678 22.2248V98.8458C147.678 99.7776 146.93 100.532 146.007 100.532H115.735Z" fill="#0044FE"/>
<path d="M263.257 72.5774C262.333 72.5774 261.585 71.8229 261.585 70.891V22.2248C261.585 21.293 262.333 20.5384 263.257 20.5384H289.954C291.083 20.5384 291.954 21.5344 291.819 22.6624L286.013 70.9099C285.897 71.8606 285.096 72.5774 284.147 72.5774H263.257Z" fill="#0044FE"/>
<path d="M274.059 102.527C271.157 102.527 268.615 101.935 266.413 100.75C264.21 99.5657 262.486 97.9284 261.215 95.8723C259.944 93.8012 259.319 91.4886 259.319 88.9232C259.319 85.0941 260.703 81.8949 263.455 79.307C266.207 76.719 269.755 75.4363 274.063 75.4363C278.37 75.4363 281.881 76.719 284.67 79.307C287.46 81.8912 288.843 85.0903 288.843 88.9232C288.843 91.4886 288.196 93.8012 286.906 95.8723C285.616 97.9435 283.87 99.5657 281.649 100.75C279.428 101.935 276.886 102.527 274.04 102.527H274.059Z" fill="#0044FE"/>
<path d="M219.334 20.5889C218.601 20.5889 217.954 21.068 217.737 21.7735L205.525 61.4308C205.256 62.306 204.03 62.306 203.76 61.4308L191.541 21.7772C191.324 21.0718 190.677 20.5926 189.944 20.5926H155.081C154.158 20.5926 153.41 21.3472 153.41 22.279V98.8472C153.41 99.779 154.158 100.534 155.081 100.534H183.121C184.115 100.534 184.889 99.6621 184.781 98.6661L181.546 68.5459C181.475 67.8819 182.418 67.6819 182.616 68.3195L192.416 99.398C192.637 100.096 193.28 100.571 194.009 100.571H215.258C215.987 100.571 216.63 100.096 216.851 99.398L226.651 68.3195C226.853 67.6819 227.791 67.8819 227.72 68.5459L224.486 98.6661C224.378 99.6621 225.155 100.534 226.146 100.534H254.186C255.109 100.534 255.857 99.779 255.857 98.8472V22.2752C255.857 21.3434 255.109 20.5889 254.186 20.5889H219.326H219.334Z" fill="#0044FE"/>
</g>
<defs>
<filter id="filter0_dd_26855_19323" x="0.48" y="0.24" width="317.79" height="133.886" filterUnits="userSpaceOnUse" color-interpolation-filters="sRGB">
<feFlood flood-opacity="0" result="BackgroundImageFix"/>
<feColorMatrix in="SourceAlpha" type="matrix" values="0 0 0 0 0 0 0 0 0 0 0 0 0 0 0 0 0 0 127 0" result="hardAlpha"/>
<feOffset dy="5.76"/>
<feGaussianBlur stdDeviation="5.76"/>
<feComposite in2="hardAlpha" operator="out"/>
<feColorMatrix type="matrix" values="0 0 0 0 0 0 0 0 0 0 0 0 0 0 0 0 0 0 0.04 0"/>
<feBlend mode="normal" in2="BackgroundImageFix" result="effect1_dropShadow_26855_19323"/>
<feColorMatrix in="SourceAlpha" type="matrix" values="0 0 0 0 0 0 0 0 0 0 0 0 0 0 0 0 0 0 127 0" result="hardAlpha"/>
<feOffset dy="2.88"/>
<feGaussianBlur stdDeviation="2.88"/>
<feComposite in2="hardAlpha" operator="out"/>
<feColorMatrix type="matrix" values="0 0 0 0 0 0 0 0 0 0 0 0 0 0 0 0 0 0 0.08 0"/>
<feBlend mode="normal" in2="effect1_dropShadow_26855_19323" result="effect2_dropShadow_26855_19323"/>
<feBlend mode="normal" in="SourceGraphic" in2="effect2_dropShadow_26855_19323" result="shape"/>
</filter>
</defs>
</svg>
