<svg width="24" height="24" viewBox="0 0 24 24" fill="none" xmlns="http://www.w3.org/2000/svg">
<g clip-path="url(#clip0_26966_3898)">
<g clip-path="url(#clip1_26966_3898)">
<path d="M21 0H3C1.34315 0 0 1.34315 0 3V21C0 22.6569 1.34315 24 3 24H21C22.6569 24 24 22.6569 24 21V3C24 1.34315 22.6569 0 21 0Z" fill="#0046FE"/>
<path d="M12.1962 11.5159C12.1962 11.5159 12.1945 11.5153 12.1945 11.5141C12.1945 11.5135 12.1945 11.513 12.1933 11.5124C12.131 11.476 12.1553 11.3756 12.2274 11.3705C13.7881 11.2579 14.6946 10.1345 14.6946 8.62341C14.6946 7.02919 13.2994 5.73096 11.5783 5.73096H2.96208C2.81956 5.73038 2.70416 5.84578 2.70416 5.9883V17.707C2.70416 17.8495 2.81956 17.9649 2.96208 17.9649H12.1939C14.1141 17.9649 15.6726 16.5184 15.6726 14.7401C15.6726 12.9618 14.1159 11.517 12.1962 11.5159Z" fill="white"/>
<path d="M21.0058 5.73022H16.8861C16.7436 5.73022 16.6282 5.84562 16.6282 5.98814V13.4313C16.6282 13.5738 16.7436 13.6892 16.8861 13.6892H20.1097C20.2563 13.6892 20.3798 13.5796 20.3976 13.4342L21.2937 6.05507C21.3145 5.88255 21.18 5.73022 21.0058 5.73022Z" fill="white"/>
<path d="M20.1893 14.7192C19.7589 14.3234 19.2171 14.1272 18.5524 14.1272C17.8877 14.1272 17.3402 14.3234 16.9155 14.7192C16.4908 15.1144 16.2773 15.6037 16.2773 16.1894C16.2773 16.5817 16.3737 16.9354 16.5699 17.2522C16.7661 17.5661 17.0326 17.817 17.3719 17.9982C17.7112 18.1794 18.1029 18.2694 18.5501 18.27C18.9886 18.27 19.3804 18.1794 19.7226 17.9982C20.0653 17.817 20.3347 17.5695 20.5338 17.2522C20.7329 16.9354 20.8327 16.5817 20.8327 16.1894C20.8327 15.6037 20.6198 15.1144 20.1893 14.7192Z" fill="white"/>
</g>
</g>
<defs>
<clipPath id="clip0_26966_3898">
<rect width="24" height="24" rx="4" fill="white"/>
</clipPath>
<clipPath id="clip1_26966_3898">
<rect width="24" height="24" fill="white"/>
</clipPath>
</defs>
</svg>
